<svg xmlns="http://www.w3.org/2000/svg" width="24" height="24" viewBox="0 0 24 24" fill="none">
    <path d="M12 15.5A3.5 3.5 0 1 0 12 8.5a3.5 3.5 0 0 0 0 7z" stroke="#FFF" stroke-width="1.5"
        fill="none" />
    <path
        d="M19.4 15a1.65 1.65 0 0 0 .33 1.82l.06.06a2 2 0 1 1-2.83 2.83l-.06-.06a1.65 1.65 0 0 0-1.82-.33 1.65 1.65 0 0 0-1 1.51V20a2 2 0 1 1-4 0v-.09a1.65 1.65 0 0 0-1-1.51 1.65 1.65 0 0 0-1.82.33l-.06.06A2 2 0 1 1 4.27 17.9l.06-.06A1.65 1.65 0 0 0 4.66 16a1.65 1.65 0 0 0-1.51-1H3a2 2 0 0 1 0-4h.15a1.65 1.65 0 0 0 1.51-1A1.65 1.65 0 0 0 5.42 7.1L5.48 7A2 2 0 1 1 8.31 4.17l.06.06a1.65 1.65 0 0 0 1.82.33h.09A1.65 1.65 0 0 0 12 4v.15a1.65 1.65 0 0 0 1 1.51h.09a1.65 1.65 0 0 0 1.82-.33l.06-.06A2 2 0 1 1 19.4 7.1l-.06.06A1.65 1.65 0 0 0 19.34 9.5H19.4a1.65 1.65 0 0 0 1.51 1v.15a2 2 0 0 1 0 4h-.15c-.7 0-1.28.36-1.51 1z"
        stroke="#FFF" stroke-width="1" fill="none" />
</svg>