<svg xmlns="http://www.w3.org/2000/svg" width="24" height="24" fill="none" viewBox="0 0 24 24"><path stroke="#fff" stroke-width="1.5" d="M12 15.5a3.5 3.5 0 1 0 0-7 3.5 3.5 0 0 0 0 7z"/><path stroke="#fff" d="M19.4 15a1.65 1.65 0 0 0 .33 1.82l.06.06a2 2 0 1 1-2.83 2.83l-.06-.06a1.65 1.65 0 0 0-1.82-.33 1.65 1.65 0 0 0-1 1.51V20a2 2 0 1 1-4 0v-.09a1.65 1.65 0 0 0-1-1.51 1.65 1.65 0 0 0-1.82.33l-.06.06a2 2 0 1 1-2.93-.89l.06-.06A1.65 1.65 0 0 0 4.66 16a1.65 1.65 0 0 0-1.51-1H3a2 2 0 0 1 0-4h.15a1.65 1.65 0 0 0 1.51-1 1.65 1.65 0 0 0 .76-2.9l.06-.1a2 2 0 1 1 2.83-2.83l.06.06a1.65 1.65 0 0 0 1.82.33h.09A1.65 1.65 0 0 0 12 4v.15a1.65 1.65 0 0 0 1 1.51h.09a1.65 1.65 0 0 0 1.82-.33l.06-.06A2 2 0 1 1 19.4 7.1l-.06.06a1.65 1.65 0 0 0 0 2.34h.06a1.65 1.65 0 0 0 1.51 1v.15a2 2 0 0 1 0 4h-.15c-.7 0-1.28.36-1.51 1z"/></svg>