<svg xmlns="http://www.w3.org/2000/svg" xmlns:xlink="http://www.w3.org/1999/xlink" width="450" height="450" viewBox="0 0 50.37 49.827"><defs><path id="a" d="m1.738.156 2.189 2.167-1.58 1.596L.101 1.81Z"/><path id="c" d="m2.201.066 1.654 1.637L1.69 3.894.093 2.311Z"/><path id="e" d="m2.398.044 1.596 1.58-2.108 2.245L.232 2.232Z"/><path id="g" d="m1.736.023 2.245 2.109-1.637 1.654L.156 1.619Z"/></defs><g fill="none" fill-rule="evenodd"><path fill="#7a67f8" d="M34.758 38.865h-.012c-2.854-.005-5.404-1.983-8.594-5.173l-6.93-6.873 2.166-2.188 6.937 6.88c3.075 3.074 4.876 4.272 6.427 4.275h.005c1.567 0 3.467-1.262 6.558-4.353l3.54-3.587c1.785-1.784 2.57-3.34 2.409-4.762-.13-1.156-.894-2.397-2.401-3.904l-.033-.034c-1.628-1.732-3.62-3.663-5.7-4.732-.385-1.977-1.65-3.533-1.83-3.818 3.803.559 7.197 3.703 9.758 6.424 2.788 2.794 5.803 7.176-.018 12.996l-3.54 3.588c-3.251 3.25-5.844 5.26-8.742 5.26"/><path fill="#f85977" d="m25.399 28.608 6.492-6.562c3.076-3.076 4.274-4.877 4.276-6.428.004-1.567-1.257-3.47-4.352-6.563l-3.587-3.54c-3.648-3.648-5.86-2.816-8.667-.008l-.033.033c-1.54 1.448-3.237 3.182-4.346 5.01-1.031.073-2.361.424-3.997 1.518.906-3.397 3.737-6.422 6.216-8.755 2.794-2.79 7.177-5.804 12.997.017l3.588 3.54c3.255 3.256 5.266 5.85 5.26 8.754-.005 2.854-1.982 5.404-5.172 8.594l-6.49 6.559z"/><path fill="#159bff" d="M12.522 38.707c-3.583-.761-6.776-3.735-9.214-6.325C2.035 31.106.32 29.13.042 26.662c-.274-2.413.8-4.794 3.283-7.277l3.542-3.588c3.25-3.25 5.843-5.261 8.74-5.261h.013c2.854.005 5.404 1.983 8.593 5.172l7.046 6.976-2.165 2.19-7.053-6.983c-3.076-3.076-4.876-4.273-6.427-4.276h-.006c-1.566 0-3.466 1.26-6.557 4.352L5.51 21.555c-1.784 1.784-2.57 3.34-2.41 4.762.132 1.156.895 2.396 2.403 3.904l.033.034c1.55 1.649 3.43 3.479 5.4 4.573.169 1.739 1.2 3.297 1.586 3.88"/><path fill="#67e5ad" d="M26.32 49.827c-1.925 0-4.114-.886-6.557-3.33l-3.588-3.54c-7.008-7.008-7.024-10.411-.09-17.347l6.803-6.872L25.08 20.9l-6.812 6.882c-3.076 3.076-4.273 4.877-4.276 6.427-.003 1.568 1.258 3.47 4.352 6.563l3.588 3.54c3.646 3.648 5.858 2.817 8.666.009l.034-.033c1.654-1.555 3.5-3.46 4.593-5.437 1.66-.14 2.9-.841 3.835-1.438-.8 3.537-3.738 6.69-6.302 9.102-1.62 1.618-3.777 3.312-6.44 3.312"/><g transform="translate(21.154 18.577)"><mask id="b" fill="#fff"><use xlink:href="#a"/></mask><path d="M.101 1.81 1.738.156l2.189 2.167-1.58 1.596Z" mask="url(#b)"/></g><g transform="translate(27.404 20.98)"><mask id="d" fill="#fff"><use xlink:href="#c"/></mask><path d="m2.201.066 1.654 1.637L1.69 3.894.093 2.311Z" mask="url(#d)"/></g><g transform="translate(18.99 24.587)"><mask id="f" fill="#fff"><use xlink:href="#e"/></mask><path d="M1.886 3.869.232 2.232 2.398.044l1.596 1.58Z" mask="url(#f)"/></g><g transform="translate(25.24 26.99)"><mask id="h" fill="#fff"><use xlink:href="#g"/></mask><path d="M3.981 2.132 2.344 3.786.156 1.619 1.736.023Z" mask="url(#h)"/></g></g></svg>